<mxfile host="app.diagrams.net" agent="Mozilla/5.0 (Windows NT 10.0; Win64; x64) AppleWebKit/537.36 (KHTML, like Gecko) Chrome/130.0.0.0 Safari/537.36" version="24.8.6">
  <diagram name="Page-1" id="AAeVqewaOoiZncuSAL-v">
    <mxGraphModel dx="593" dy="656" grid="0" gridSize="10" guides="1" tooltips="1" connect="1" arrows="1" fold="1" page="0" pageScale="1" pageWidth="850" pageHeight="1100" math="0" shadow="0">
      <root>
        <mxCell id="0" />
        <mxCell id="1" parent="0" />
        <mxCell id="ycS7OYskejZ-jSpqinFB-8" style="edgeStyle=none;curved=1;rounded=0;orthogonalLoop=1;jettySize=auto;html=1;exitX=0.5;exitY=1;exitDx=0;exitDy=0;exitPerimeter=0;entryX=0.5;entryY=0;entryDx=0;entryDy=0;fontSize=12;startSize=8;endSize=8;" edge="1" parent="1" source="ycS7OYskejZ-jSpqinFB-1" target="ycS7OYskejZ-jSpqinFB-3">
          <mxGeometry relative="1" as="geometry" />
        </mxCell>
        <mxCell id="ycS7OYskejZ-jSpqinFB-1" value="&lt;i&gt;START&lt;/i&gt;" style="strokeWidth=2;html=1;shape=mxgraph.flowchart.terminator;whiteSpace=wrap;" vertex="1" parent="1">
          <mxGeometry x="110" y="16" width="100" height="60" as="geometry" />
        </mxCell>
        <mxCell id="ycS7OYskejZ-jSpqinFB-2" value="&lt;i&gt;END&lt;/i&gt;" style="strokeWidth=2;html=1;shape=mxgraph.flowchart.terminator;whiteSpace=wrap;" vertex="1" parent="1">
          <mxGeometry x="306" y="465" width="100" height="60" as="geometry" />
        </mxCell>
        <mxCell id="ycS7OYskejZ-jSpqinFB-9" style="edgeStyle=none;curved=1;rounded=0;orthogonalLoop=1;jettySize=auto;html=1;exitX=0.5;exitY=1;exitDx=0;exitDy=0;fontSize=12;startSize=8;endSize=8;" edge="1" parent="1" source="ycS7OYskejZ-jSpqinFB-3" target="ycS7OYskejZ-jSpqinFB-5">
          <mxGeometry relative="1" as="geometry" />
        </mxCell>
        <mxCell id="ycS7OYskejZ-jSpqinFB-3" value="Hasil&lt;div&gt;&lt;i&gt;Text Cleaning&lt;/i&gt;&lt;/div&gt;" style="shape=parallelogram;html=1;strokeWidth=2;perimeter=parallelogramPerimeter;whiteSpace=wrap;rounded=1;arcSize=12;size=0.23;" vertex="1" parent="1">
          <mxGeometry x="95" y="110" width="130" height="60" as="geometry" />
        </mxCell>
        <mxCell id="ycS7OYskejZ-jSpqinFB-4" value="Hasil&lt;div&gt;Pembakuan Kata&lt;/div&gt;" style="shape=parallelogram;html=1;strokeWidth=2;perimeter=parallelogramPerimeter;whiteSpace=wrap;rounded=1;arcSize=12;size=0.23;" vertex="1" parent="1">
          <mxGeometry x="279.5" y="351" width="153" height="60" as="geometry" />
        </mxCell>
        <mxCell id="ycS7OYskejZ-jSpqinFB-5" value="Cek Kata&lt;div&gt;dalam&lt;/div&gt;&lt;div&gt;Kamus Slang&lt;/div&gt;" style="rounded=1;whiteSpace=wrap;html=1;absoluteArcSize=1;arcSize=14;strokeWidth=2;" vertex="1" parent="1">
          <mxGeometry x="103.5" y="222" width="113" height="60" as="geometry" />
        </mxCell>
        <mxCell id="ycS7OYskejZ-jSpqinFB-12" style="edgeStyle=none;curved=1;rounded=0;orthogonalLoop=1;jettySize=auto;html=1;exitX=0.5;exitY=1;exitDx=0;exitDy=0;exitPerimeter=0;entryX=0.5;entryY=0;entryDx=0;entryDy=0;fontSize=12;startSize=8;endSize=8;" edge="1" parent="1" source="ycS7OYskejZ-jSpqinFB-6" target="ycS7OYskejZ-jSpqinFB-4">
          <mxGeometry relative="1" as="geometry" />
        </mxCell>
        <mxCell id="ycS7OYskejZ-jSpqinFB-16" value="FALSE" style="edgeLabel;html=1;align=center;verticalAlign=middle;resizable=0;points=[];fontSize=12;" vertex="1" connectable="0" parent="ycS7OYskejZ-jSpqinFB-12">
          <mxGeometry x="-0.0612" relative="1" as="geometry">
            <mxPoint as="offset" />
          </mxGeometry>
        </mxCell>
        <mxCell id="ycS7OYskejZ-jSpqinFB-19" style="edgeStyle=none;curved=1;rounded=0;orthogonalLoop=1;jettySize=auto;html=1;exitX=1;exitY=0.5;exitDx=0;exitDy=0;exitPerimeter=0;entryX=0;entryY=0.5;entryDx=0;entryDy=0;fontSize=12;startSize=8;endSize=8;" edge="1" parent="1" source="ycS7OYskejZ-jSpqinFB-6" target="ycS7OYskejZ-jSpqinFB-17">
          <mxGeometry relative="1" as="geometry" />
        </mxCell>
        <mxCell id="ycS7OYskejZ-jSpqinFB-20" value="TRUE" style="edgeLabel;html=1;align=center;verticalAlign=middle;resizable=0;points=[];fontSize=12;" vertex="1" connectable="0" parent="ycS7OYskejZ-jSpqinFB-19">
          <mxGeometry x="-0.0519" relative="1" as="geometry">
            <mxPoint as="offset" />
          </mxGeometry>
        </mxCell>
        <mxCell id="ycS7OYskejZ-jSpqinFB-6" value="Ada" style="strokeWidth=2;html=1;shape=mxgraph.flowchart.decision;whiteSpace=wrap;" vertex="1" parent="1">
          <mxGeometry x="306" y="202" width="100" height="100" as="geometry" />
        </mxCell>
        <mxCell id="ycS7OYskejZ-jSpqinFB-10" style="edgeStyle=none;curved=1;rounded=0;orthogonalLoop=1;jettySize=auto;html=1;exitX=1;exitY=0.5;exitDx=0;exitDy=0;entryX=0;entryY=0.5;entryDx=0;entryDy=0;entryPerimeter=0;fontSize=12;startSize=8;endSize=8;" edge="1" parent="1" source="ycS7OYskejZ-jSpqinFB-5" target="ycS7OYskejZ-jSpqinFB-6">
          <mxGeometry relative="1" as="geometry" />
        </mxCell>
        <mxCell id="ycS7OYskejZ-jSpqinFB-13" style="edgeStyle=none;curved=1;rounded=0;orthogonalLoop=1;jettySize=auto;html=1;exitX=0.5;exitY=1;exitDx=0;exitDy=0;entryX=0.5;entryY=0;entryDx=0;entryDy=0;entryPerimeter=0;fontSize=12;startSize=8;endSize=8;" edge="1" parent="1" source="ycS7OYskejZ-jSpqinFB-4" target="ycS7OYskejZ-jSpqinFB-2">
          <mxGeometry relative="1" as="geometry" />
        </mxCell>
        <mxCell id="ycS7OYskejZ-jSpqinFB-21" style="edgeStyle=none;curved=1;rounded=0;orthogonalLoop=1;jettySize=auto;html=1;exitX=0.5;exitY=1;exitDx=0;exitDy=0;entryX=0.5;entryY=0;entryDx=0;entryDy=0;fontSize=12;startSize=8;endSize=8;" edge="1" parent="1" source="ycS7OYskejZ-jSpqinFB-17" target="ycS7OYskejZ-jSpqinFB-18">
          <mxGeometry relative="1" as="geometry" />
        </mxCell>
        <mxCell id="ycS7OYskejZ-jSpqinFB-17" value="&lt;i&gt;Replace &lt;/i&gt;Kata" style="rounded=1;whiteSpace=wrap;html=1;absoluteArcSize=1;arcSize=14;strokeWidth=2;" vertex="1" parent="1">
          <mxGeometry x="496" y="222" width="113" height="60" as="geometry" />
        </mxCell>
        <mxCell id="ycS7OYskejZ-jSpqinFB-23" style="edgeStyle=none;curved=1;rounded=0;orthogonalLoop=1;jettySize=auto;html=1;exitX=0;exitY=0.5;exitDx=0;exitDy=0;entryX=1;entryY=0.5;entryDx=0;entryDy=0;fontSize=12;startSize=8;endSize=8;" edge="1" parent="1" source="ycS7OYskejZ-jSpqinFB-18" target="ycS7OYskejZ-jSpqinFB-4">
          <mxGeometry relative="1" as="geometry" />
        </mxCell>
        <mxCell id="ycS7OYskejZ-jSpqinFB-18" value="Kata Baku" style="shape=parallelogram;html=1;strokeWidth=2;perimeter=parallelogramPerimeter;whiteSpace=wrap;rounded=1;arcSize=12;size=0.23;" vertex="1" parent="1">
          <mxGeometry x="476" y="351" width="153" height="60" as="geometry" />
        </mxCell>
      </root>
    </mxGraphModel>
  </diagram>
</mxfile>
